<svg xmlns="http://www.w3.org/2000/svg" viewBox="-50 -50 100 100" width="1024" height="1024" role="img" aria-label="Usage Pulse"><defs><mask id="L-usage-pulse-m0" maskUnits="userSpaceOnUse" x="-60" y="-60" width="120" height="120"><rect x="-60" y="-60" width="120" height="120" fill="#fff"/><path d="M-30 13 L28 -13" fill="none" stroke="#000" stroke-width="12.5" stroke-linecap="round" stroke-linejoin="round"/></mask><mask id="L-usage-pulse-m1" maskUnits="userSpaceOnUse" x="-60" y="-60" width="120" height="120"><rect x="-60" y="-60" width="120" height="120" fill="#fff"/><path d="M-30 13 L28 -13" fill="none" stroke="#000" stroke-width="12.5" stroke-linecap="round" stroke-linejoin="round"/></mask><mask id="L-usage-pulse-m2" maskUnits="userSpaceOnUse" x="-60" y="-60" width="120" height="120"><rect x="-60" y="-60" width="120" height="120" fill="#fff"/><path d="M-30 13 L28 -13" fill="none" stroke="#000" stroke-width="12.5" stroke-linecap="round" stroke-linejoin="round"/></mask><mask id="L-usage-pulse-m3" maskUnits="userSpaceOnUse" x="-60" y="-60" width="120" height="120"><rect x="-60" y="-60" width="120" height="120" fill="#fff"/><path d="M-30 13 L28 -13" fill="none" stroke="#000" stroke-width="12.5" stroke-linecap="round" stroke-linejoin="round"/></mask><clipPath id="L-usage-pulse-c"><path d="M-80 -80 H80 L-80 80 Z" transform="rotate(-8)"/></clipPath></defs><circle r="49" fill="#19D39A"/><circle r="43.5" fill="none" stroke="#152323" stroke-width="2.2"/><g transform="translate(0 1)"><g mask="url(#L-usage-pulse-m0)"><path d="M-18 -13 V9" fill="none" stroke="#164F40" stroke-width="7.5" stroke-linecap="round" stroke-linejoin="round"/></g><g mask="url(#L-usage-pulse-m1)"><path d="M-6 -30 V14" fill="none" stroke="#164F40" stroke-width="7.5" stroke-linecap="round" stroke-linejoin="round"/></g><g mask="url(#L-usage-pulse-m2)"><path d="M6 -11 V27" fill="none" stroke="#152323" stroke-width="7.5" stroke-linecap="round" stroke-linejoin="round"/></g><g mask="url(#L-usage-pulse-m3)"><path d="M18 -17 V11" fill="none" stroke="#152323" stroke-width="7.5" stroke-linecap="round" stroke-linejoin="round"/></g><path d="M-30 13 L28 -13" fill="none" stroke="#152323" stroke-width="6.5" stroke-linecap="round" stroke-linejoin="round"/><g clip-path="url(#L-usage-pulse-c)"><path d="M-30 13 L28 -13" fill="none" stroke="#164F40" stroke-width="6.5" stroke-linecap="round" stroke-linejoin="round"/></g></g></svg>