<svg xmlns="http://www.w3.org/2000/svg" viewBox="-50 -50 100 100" width="1024" height="1024" role="img" aria-label="Web.de Access"><defs><mask id="L-webde-access-m0" maskUnits="userSpaceOnUse" x="-60" y="-60" width="120" height="120"><rect x="-60" y="-60" width="120" height="120" fill="#fff"/><path d="M0 0 L-5.02 -28.48 L0 -33.5 L28.48 -5.02 Z" fill="none" stroke="#000" stroke-width="2.6" stroke-linejoin="round"/></mask><mask id="L-webde-access-m1" maskUnits="userSpaceOnUse" x="-60" y="-60" width="120" height="120"><rect x="-60" y="-60" width="120" height="120" fill="#fff"/><path d="M0 0 L28.48 -5.02 L33.5 0 L5.02 28.48 Z" fill="none" stroke="#000" stroke-width="2.6" stroke-linejoin="round"/></mask><mask id="L-webde-access-m2" maskUnits="userSpaceOnUse" x="-60" y="-60" width="120" height="120"><rect x="-60" y="-60" width="120" height="120" fill="#fff"/><path d="M0 0 L5.02 28.48 L0 33.5 L-28.48 5.02 Z" fill="none" stroke="#000" stroke-width="2.6" stroke-linejoin="round"/></mask><mask id="L-webde-access-m3" maskUnits="userSpaceOnUse" x="-60" y="-60" width="120" height="120"><rect x="-60" y="-60" width="120" height="120" fill="#fff"/><path d="M0 0 L-28.48 5.02 L-33.5 0 L-5.02 -28.48 Z" fill="none" stroke="#000" stroke-width="2.6" stroke-linejoin="round"/></mask><clipPath id="L-webde-access-c"><path d="M-80 -80 H80 L-80 80 Z" transform="rotate(-8)"/></clipPath></defs><circle r="49" fill="#E7B93B"/><circle r="43.5" fill="none" stroke="#24211C" stroke-width="2.2"/><g><g mask="url(#L-webde-access-m0)"><path d="M0 0 L-5.02 -28.48 L0 -33.5 L28.48 -5.02 Z" fill="#3B3320"/></g><g mask="url(#L-webde-access-m1)"><path d="M0 0 L28.48 -5.02 L33.5 0 L5.02 28.48 Z" fill="#1B1B1B"/></g><g mask="url(#L-webde-access-m2)"><path d="M0 0 L5.02 28.48 L0 33.5 L-28.48 5.02 Z" fill="#302B1E"/></g><g mask="url(#L-webde-access-m3)"><path d="M0 0 L-28.48 5.02 L-33.5 0 L-5.02 -28.48 Z" fill="#584A25"/></g><g clip-path="url(#L-webde-access-c)"><g mask="url(#L-webde-access-m0)"><path d="M0 0 L-5.02 -28.48 L0 -33.5 L28.48 -5.02 Z" fill="#3B3320"/></g><g mask="url(#L-webde-access-m1)"><path d="M0 0 L28.48 -5.02 L33.5 0 L5.02 28.48 Z" fill="#1B1B1B"/></g><g mask="url(#L-webde-access-m2)"><path d="M0 0 L5.02 28.48 L0 33.5 L-28.48 5.02 Z" fill="#302B1E"/></g><g mask="url(#L-webde-access-m3)"><path d="M0 0 L-28.48 5.02 L-33.5 0 L-5.02 -28.48 Z" fill="#584A25"/></g></g></g></svg>